<svg width="147" height="147" viewBox="0 0 147 147" fill="none" xmlns="http://www.w3.org/2000/svg">
<g clipPath="url(#clip0_1_10)">
<path d="M73.5 147C114.093 147 147 114.093 147 73.5C147 32.9071 114.093 0 73.5 0C32.9071 0 0 32.9071 0 73.5C0 114.093 32.9071 147 73.5 147Z" fill="white"/>
<path d="M89.0469 52.9044H75.0104L82.3264 31.7471L58.0741 61.2617H72.1115L64.7956 82.4184L89.0469 52.9044Z" fill="#111111"/>
<path d="M40.0028 98.5304C42.2243 98.5304 45.3306 100.206 44.7093 104.63H37.8754C38.2143 105.647 39.0991 106.174 40.2852 106.174C41.4901 106.174 41.8666 105.91 42.5443 105.628L44.1822 107.209C43.3162 108.056 42.149 108.678 40.1722 108.678C37.7437 108.678 34.8444 107.002 34.8444 103.632C34.8444 100.206 37.7813 98.5304 40.0028 98.5304ZM40.0028 101.072C39.1556 101.072 38.2896 101.561 37.9131 102.54H42.0737C41.7725 101.561 40.85 101.072 40.0028 101.072ZM51.2232 98.5304C53.0117 98.5304 54.5178 99.2834 55.4403 100.865L53.1811 101.938C52.6916 101.524 52.2963 101.147 51.2609 101.147C50.1313 101.147 48.9829 102.013 48.9829 103.613C48.9829 105.195 50.1313 106.023 51.2609 106.023C52.2963 106.023 52.6916 105.684 53.1811 105.27L55.4779 106.343C54.5178 107.925 53.0493 108.64 51.2232 108.64C49.0394 108.64 46.1025 107.077 46.1025 103.613C46.1025 100.206 49.0394 98.5304 51.2232 98.5304ZM61.86 98.5304C64.0815 98.5304 67.0184 100.206 67.0184 103.632C67.0184 107.077 64.0815 108.678 61.86 108.678C59.6385 108.678 56.7016 107.077 56.7016 103.632C56.7016 100.206 59.6385 98.5304 61.86 98.5304ZM61.86 101.147C60.7304 101.147 59.582 102.013 59.582 103.632C59.582 105.195 60.7304 106.061 61.86 106.061C62.9896 106.061 64.1568 105.195 64.1568 103.632C64.1568 102.013 62.9896 101.147 61.86 101.147ZM82.2111 98.6622H85.1668L81.6651 108.489H78.8036L76.6574 102.371L74.5112 108.489H71.6496L68.1479 98.6622H71.1036L73.118 104.95L75.3584 98.6622H77.9564L80.1967 104.95L82.2111 98.6622ZM93.6386 98.6998H96.6131V108.489H93.6386V107.51C93.5068 107.849 92.622 108.678 91.1159 108.678C88.8756 108.678 86.2964 107.077 86.2964 103.576C86.2964 100.206 88.8756 98.5304 91.1159 98.5304C92.622 98.5304 93.5068 99.3964 93.6386 99.6035V98.6998ZM91.5489 106.061C92.7726 106.061 93.7704 105.214 93.7704 103.576C93.7704 101.994 92.7726 101.147 91.5489 101.147C90.2687 101.147 89.1768 102.013 89.1768 103.576C89.1768 105.195 90.2687 106.061 91.5489 106.061ZM103.296 106.004C103.824 106.004 104.2 105.929 104.614 105.816V108.282C104.2 108.471 103.522 108.602 102.525 108.602C100.887 108.602 99.5124 108.056 99.5124 105.044V101.147H98.1381V98.6998H99.5124V96.403H102.487V98.6998H104.577V101.147H102.487V105.044C102.487 105.477 102.6 106.004 103.296 106.004ZM110.959 106.004C111.486 106.004 111.862 105.929 112.277 105.816V108.282C111.862 108.471 111.185 108.602 110.187 108.602C108.549 108.602 107.175 108.056 107.175 105.044V101.147H105.8V98.6998H107.175V96.403H110.149V98.6998H112.239V101.147H110.149V105.044C110.149 105.477 110.262 106.004 110.959 106.004Z" fill="#111111"/>
</g>
<defs>
<clipPath id="clip0_1_10">
<rect width="147" height="147" fill="white"/>
</clipPath>
</defs>
</svg>
